# xmcd
#
# Track frame offsets:
#        187
#        17462
#        72312
#        98825
#        115862
#        148542
#        166727
#
# Disc length: 2571 seconds
#
# Revision: 0
# Processed by: cddbd v1.5.1PL0 Copyright (c) Steve Scherf et al.
# Submitted via: ExactAudioCopy v0.95a5
#
DISCID=510a0907
DTITLE=Kiss - Alive! [CD2]
DYEAR=1900
DGENRE=
TTITLE0=Watchin' You
TTITLE1=100,000 Years
TTITLE2=Black Diamond
TTITLE3=Rock Bottom
TTITLE4=Cold Gin
TTITLE5=Rock And Roll All Nite
TTITLE6=Let Me Go Rock And Roll
EXTD=
EXTT0=
EXTT1=
EXTT2=
EXTT3=
EXTT4=
EXTT5=
EXTT6=
PLAYORDER=
